<?xml version="1.0"?>
<svg xmlns="http://www.w3.org/2000/svg" xmlns:xlink="http://www.w3.org/1999/xlink" viewBox="0 0 512 512" width="512" height="512"><linearGradient id="a" gradientUnits="userSpaceOnUse" x1="256" x2="256" y1="18" y2="466"><stop offset="0" stop-color="#00efd1"/><stop offset="1" stop-color="#00acea"/></linearGradient><g fill="url(#a)"><path d="m387.905 166h-263.805a10.185 10.185 0 0 0 -9.936 11.309l27.059 236.8a51.721 51.721 0 0 0 51.377 45.891h131.334a51.506 51.506 0 0 0 51.456-46.825l22.47-235.983a10.279 10.279 0 0 0 -2.556-7.8 10.121 10.121 0 0 0 -7.399-3.392zm-32.426 245.165a31.684 31.684 0 0 1 -31.545 28.835h-131.334a31.808 31.808 0 0 1 -31.513-28.242l-25.787-225.758h241.608z"/><path d="m425.965 102h-105.965v-19.093a31.192 31.192 0 0 0 -31.154-30.907h-65.692a31.192 31.192 0 0 0 -31.154 30.907v19.093h-105.965a10 10 0 0 0 0 20h339.93a10 10 0 0 0 0-20zm-125.965 0h-88v-19.093a11.171 11.171 0 0 1 11.154-10.907h65.692a11.171 11.171 0 0 1 11.154 10.907z"/></g></svg>
